<svg width="179" height="179" viewBox="0 0 179 179" fill="none" xmlns="http://www.w3.org/2000/svg">
<path d="M89.3793 178.759C138.742 178.759 178.759 138.742 178.759 89.3793C178.759 40.0165 138.742 0 89.3793 0C40.0165 0 0 40.0165 0 89.3793C0 138.742 40.0165 178.759 89.3793 178.759Z" fill="#C8C6C4"/>
<path d="M146.098 115.645C145.791 115.665 145.489 115.806 145.197 116.044C143.072 115.706 140.891 115.527 138.666 115.527H115.365C113.367 115.527 111.425 115.681 109.534 115.952L108.039 115.699C108.039 115.699 79.7572 114.408 69.1816 106.26C67.0472 103.693 68.9787 102.892 69.9637 101.144C71.4165 98.5649 68.1319 97.3247 68.0881 95.9719C68.0349 94.3222 70.3788 92.5624 70.655 92.3607C83.6719 84.4421 115.713 82.0805 115.713 82.0805L114.964 71.7562C114.964 71.7562 41.3826 57.8956 32.8536 96.4845C25.3769 130.313 73.099 143.156 77.3212 169L78.0966 178.052C81.7921 178.518 85.5574 178.759 89.3793 178.759C126.448 178.759 158.245 156.192 171.784 124.048C164.724 119.636 156.247 116.545 146.098 115.645Z" fill="url(#paint0_linear)"/>
<path d="M78.4592 69.5652L81.6287 87.8581C96.3643 83.507 115.713 82.0804 115.713 82.0804L114.964 71.7561C114.964 71.7562 97.4117 68.4526 78.4592 69.5652Z" fill="url(#paint1_radial)"/>
<path d="M106.171 80.765L148.758 81.3761L148.968 66.7847C149.027 62.6305 145.708 59.2145 141.554 59.1549L114.007 58.7597C109.855 58.7001 106.44 62.0182 106.381 66.1709L106.171 80.765Z" fill="#BF8F68"/>
<path d="M141.523 110.287C140.913 105.583 141.957 79.9468 141.957 79.9468H115.559C115.559 79.9468 115.282 106.689 114.223 111.41C113.164 116.131 109.251 115.523 108.039 115.699C110.607 120.08 118.57 123.462 127.671 123.462C137.014 123.462 145.577 120.355 147.928 115.792C146.242 115.549 142.087 114.634 141.523 110.287Z" fill="url(#paint2_radial)"/>
<path d="M145.177 89.3622C148.678 89.3622 151.516 86.5242 151.516 83.0234C151.516 79.5225 148.678 76.6845 145.177 76.6845C141.677 76.6845 138.839 79.5225 138.839 83.0234C138.839 86.5242 141.677 89.3622 145.177 89.3622Z" fill="#DCB38B"/>
<path d="M108.329 89.038C111.83 89.038 114.668 86.2 114.668 82.6992C114.668 79.1983 111.83 76.3604 108.329 76.3604C104.828 76.3604 101.99 79.1983 101.99 82.6992C101.99 86.2 104.828 89.038 108.329 89.038Z" fill="url(#paint3_radial)"/>
<path d="M123.446 106.954L128.863 107.032C137.774 107.16 145.102 100.04 145.23 91.1289L145.531 70.1181C145.599 65.3773 141.811 61.479 137.07 61.411L116.983 61.1228C112.122 61.053 108.125 64.9367 108.056 69.7973L107.754 90.8054C107.628 99.5982 114.654 106.828 123.446 106.954Z" fill="#DCB38B"/>
<path d="M106.386 63.4222C106.386 63.4222 112.501 61.1499 112.436 68.7271C112.371 76.3043 107.837 76.3769 107.837 76.3769L106.386 63.4222Z" fill="#BF8F68"/>
<path d="M117.456 65.2754C120.173 65.0894 127.823 61.6043 133.255 61.3563C141.117 60.9973 143.413 64.7342 143.413 64.7342C143.413 64.7342 145.663 49.3591 134.529 51.3558C123.87 53.2672 126.384 48.6707 121.808 48.358C117.464 48.0613 117.34 52.2386 114.666 52.3848C110.255 52.6261 111.789 47.2637 105.062 48.2093C98.6313 49.1134 94.5719 66.8422 117.456 65.2754Z" fill="#BF8F68"/>
<path d="M134.289 81.5229C135.114 81.5137 135.769 80.272 135.752 78.7495C135.735 77.227 135.052 76.0002 134.228 76.0095C133.403 76.0187 132.748 77.2604 132.765 78.7829C132.782 80.3054 133.465 81.5322 134.289 81.5229Z" fill="#605D5A"/>
<path d="M113.246 97.7463L125.809 95.7463L125.794 91.2599C125.837 90.5624 125.527 89.8901 124.968 89.4705L122.108 87.3229C121.486 86.8555 121.356 85.9743 121.816 85.347L124.658 81.4779C125.335 80.5555 125.734 79.4588 125.809 78.3169L126.746 67.2463L114.853 69.4116L113.246 97.7463Z" fill="url(#paint4_radial)" fill-opacity="0.8"/>
<path d="M147.623 70.5214C147.797 66.9594 146.352 63.7117 143.69 63.5967C142.23 63.5335 140.321 65.2325 140.29 68.675C140.222 76.2522 145.437 76.6633 145.437 76.6633C145.437 76.6633 147.448 74.0835 147.623 70.5214Z" fill="#BF8F68"/>
<path d="M118.615 81.7105C119.44 81.7013 120.095 80.4596 120.078 78.9371C120.061 77.4146 119.378 76.1878 118.553 76.197C117.729 76.2063 117.074 77.448 117.091 78.9705C117.108 80.493 117.79 81.7198 118.615 81.7105Z" fill="#605D5A"/>
<path d="M130.978 95.8933C130.381 95.8408 129.91 95.9194 129.31 96.0265C128.719 96.1401 128.054 96.3088 127.324 96.4341C126.595 96.5646 125.791 96.6416 124.95 96.572C124.116 96.5057 123.227 96.26 122.528 95.7236C122.232 95.4963 122.177 95.0723 122.404 94.7764C122.521 94.6246 122.689 94.536 122.865 94.5165L122.937 94.5089C123.635 94.434 124.227 94.3305 124.856 94.2015C125.481 94.0724 126.127 93.9019 126.841 93.7708C127.552 93.6377 128.331 93.5181 129.207 93.5654C130.061 93.6029 131.11 93.8885 131.772 94.6167C132.059 94.9326 132.035 95.4215 131.72 95.7086C131.554 95.859 131.341 95.9241 131.135 95.9068L130.978 95.8933Z" fill="#BF8F68"/>
<path d="M54.9937 68.3481C69.1513 68.3481 80.6282 56.8712 80.6282 42.7136C80.6282 28.5561 69.1513 17.0792 54.9937 17.0792C40.8362 17.0792 29.3593 28.5561 29.3593 42.7136C29.3593 56.8712 40.8362 68.3481 54.9937 68.3481Z" fill="white"/>
<path d="M80.6282 43.2763C83.8647 43.2763 86.4885 40.6526 86.4885 37.4161C86.4885 34.1795 83.8647 31.5558 80.6282 31.5558C77.3917 31.5558 74.7679 34.1795 74.7679 37.4161C74.7679 40.6526 77.3917 43.2763 80.6282 43.2763Z" fill="white"/>
<path d="M91.6372 45.117C93.3536 45.117 94.7451 43.7256 94.7451 42.0092C94.7451 40.2927 93.3536 38.9013 91.6372 38.9013C89.9208 38.9013 88.5293 40.2927 88.5293 42.0092C88.5293 43.7256 89.9208 45.117 91.6372 45.117Z" fill="white"/>
<path fill-rule="evenodd" clip-rule="evenodd" d="M52.6071 45.3761C52.648 46.671 53.7092 47.6996 55.0045 47.7C56.3002 47.6999 57.3618 46.6713 57.4028 45.3761L57.8408 31.4473C57.8822 30.1227 56.842 29.0154 55.5174 28.9739C55.4924 28.9731 55.4676 28.9727 55.4426 28.9727H54.5672C53.242 28.9728 52.1678 30.0472 52.1679 31.3725C52.1679 31.3975 52.1683 31.4224 52.169 31.4473L52.6071 45.3761ZM53.8837 56.2234C54.2218 56.3721 54.5867 56.4532 54.9558 56.4613C55.7159 56.4751 56.4491 56.1795 56.9868 55.6421C57.5424 55.1095 57.8454 54.3659 57.8203 53.5967C57.84 52.8288 57.5378 52.0874 56.9868 51.552C56.1642 50.7532 54.9481 50.5142 53.8844 50.9423C53.5458 51.0816 53.2369 51.2837 52.9739 51.5372C52.7036 51.7981 52.4845 52.1071 52.3291 52.4484C52.1675 52.8093 52.0865 53.2014 52.0912 53.5974C52.0881 53.9837 52.1692 54.3659 52.3291 54.7174C52.6385 55.3978 53.1939 55.9358 53.8837 56.2234Z" fill="#D45F41"/>
<defs>
<linearGradient id="paint0_linear" x1="32.9767" y1="69.3338" x2="32.9767" y2="177.323" gradientUnits="userSpaceOnUse">
<stop stop-color="#348B5B"/>
<stop offset="1" stop-color="#1A633B"/>
</linearGradient>
<radialGradient id="paint1_radial" cx="0" cy="0" r="1" gradientUnits="userSpaceOnUse" gradientTransform="translate(118.224 77.456) scale(23.0547 11.4622)">
<stop stop-color="#915A37"/>
<stop offset="0.2986" stop-color="#B1805B"/>
<stop offset="0.5757" stop-color="#C99C75"/>
<stop offset="0.8184" stop-color="#D7AD85"/>
<stop offset="1" stop-color="#DCB38B"/>
</radialGradient>
<radialGradient id="paint2_radial" cx="0" cy="0" r="1" gradientUnits="userSpaceOnUse" gradientTransform="translate(123.47 93.5935) scale(26.2416 28.6269)">
<stop stop-color="#915A37"/>
<stop offset="0.0927" stop-color="#9D6844"/>
<stop offset="0.3428" stop-color="#B88963"/>
<stop offset="0.5833" stop-color="#CCA079"/>
<stop offset="0.8077" stop-color="#D8AE86"/>
<stop offset="1" stop-color="#DCB38B"/>
</radialGradient>
<radialGradient id="paint3_radial" cx="0" cy="0" r="1" gradientUnits="userSpaceOnUse" gradientTransform="translate(115.263 82.4014) rotate(0.50419) scale(12.1822)">
<stop stop-color="#915A37"/>
<stop offset="0.0538" stop-color="#98623E"/>
<stop offset="0.3257" stop-color="#B58560"/>
<stop offset="0.5818" stop-color="#CB9E77"/>
<stop offset="0.8138" stop-color="#D7AE86"/>
<stop offset="1" stop-color="#DCB38B"/>
</radialGradient>
<radialGradient id="paint4_radial" cx="0" cy="0" r="1" gradientUnits="userSpaceOnUse" gradientTransform="translate(126.246 84.9338) rotate(7.12502) scale(6.55058 15.2558)">
<stop stop-color="#9B643D"/>
<stop offset="1" stop-color="#BF8F68" stop-opacity="0.01"/>
</radialGradient>
</defs>
</svg>
