<svg width="180" height="180" viewBox="0 0 180 180" fill="none" xmlns="http://www.w3.org/2000/svg">
<path d="M0 89.6797C0 103.26 3.02143 116.199 8.42143 127.73C22.7571 158.285 53.7429 179.359 89.6143 179.359C106.264 179.359 121.886 174.811 135.257 166.868C161.614 151.238 179.229 122.541 179.229 89.6797C179.229 40.1637 139.114 0 89.6143 0C40.1143 0 0 40.1637 0 89.6797Z" fill="#C8C6C4"/>
<path d="M8.42143 127.73C12.8571 125.552 19.6071 120.811 20.3786 117.801C22.4357 110.242 14.4 103.964 18.0643 96.9182C21.6643 89.8719 30.2143 89.9359 35.1643 83.274C40.1143 76.6121 40.05 68.0285 40.05 68.0285L65.7 50.7331L67.2429 57.4591L68.9143 50.0285L93.4714 65.4021C93.4714 65.4021 94.7571 76.6762 99.8357 83.4662C104.914 90.2562 114.429 89.7438 118.157 96.9182C121.821 104.093 112.886 110.819 115.007 118.441C117.129 126.064 131.786 125.936 135.193 133.879C140.657 146.562 122.914 148.996 122.914 156.171C122.914 161.936 130.371 161.68 135.321 166.932C121.95 174.875 106.393 179.359 89.7429 179.359C53.7429 179.359 22.7571 158.285 8.42143 127.73Z" fill="white"/>
<path d="M134.743 74.306C148.199 74.306 159.107 63.4366 159.107 50.0285C159.107 36.6203 148.199 25.7509 134.743 25.7509C121.287 25.7509 110.379 36.6203 110.379 50.0285C110.379 63.4366 121.287 74.306 134.743 74.306Z" fill="white"/>
<path d="M113.4 69.5658C116.489 69.5658 118.993 67.0707 118.993 63.9929C118.993 60.915 116.489 58.4199 113.4 58.4199C110.311 58.4199 107.807 60.915 107.807 63.9929C107.807 67.0707 110.311 69.5658 113.4 69.5658Z" fill="white"/>
<path d="M102.6 72.4484C104.233 72.4484 105.557 71.1292 105.557 69.5018C105.557 67.8744 104.233 66.5552 102.6 66.5552C100.967 66.5552 99.6429 67.8744 99.6429 69.5018C99.6429 71.1292 100.967 72.4484 102.6 72.4484Z" fill="white"/>
<path fill-rule="evenodd" clip-rule="evenodd" d="M132.493 52.5907C132.493 53.8078 133.521 54.7687 134.743 54.7687C135.964 54.7687 136.993 53.7438 137.057 52.5267L137.379 39.331V39.2669C137.379 37.9858 136.414 36.9608 135.129 36.9608H134.293H134.229C133.007 37.0249 131.979 38.0498 132.043 39.331L132.493 52.5907ZM132.879 62.2633C133.393 62.7758 134.1 63.032 134.807 63.032C135.129 63.032 135.514 62.968 135.836 62.8398C136.479 62.5836 136.993 62.0712 137.314 61.4306C137.507 61.0463 137.571 60.726 137.571 60.3416C137.571 59.9573 137.443 59.5729 137.314 59.2527C137.121 58.9324 136.929 58.6761 136.671 58.4199C136.479 58.1637 136.157 57.9715 135.836 57.8434C134.807 57.4591 133.65 57.6512 132.879 58.4199C132.364 58.9324 132.107 59.637 132.107 60.3416C132.043 61.0463 132.364 61.7509 132.879 62.2633Z" fill="#D45F41"/>
<path d="M40.1786 72.7687C40.3071 73.9217 40.5 75.1388 40.7571 76.2278C42.1714 82.4413 45.5143 87.8221 50.0143 91.6014C55.35 96.1495 62.2929 98.5836 69.6214 97.8149L70.0714 97.7509C83.6357 96.3416 93.7286 84.427 93.7929 70.3986C93.7929 69.3096 93.7286 68.2206 93.6 67.1317C92.8929 60.4697 89.6786 54.7046 85.05 50.7331C82.8 48.8114 80.2286 47.3381 77.4643 46.3772C74.4429 45.3523 71.2286 44.968 68.0143 45.3523L60.6857 46.1851C57.4071 46.5053 54.2571 47.5943 51.4929 49.2598C43.8429 53.9359 39.15 62.968 40.1786 72.7687Z" fill="white"/>
<path d="M78.3643 109.345H78.3C77.9143 109.217 77.5286 109.153 77.1429 109.025C74.8929 108.192 73.35 105.95 73.35 103.516V102.107L61.5214 102.171V103.772C61.5214 106.27 59.9143 108.512 57.4714 109.217C57.15 109.345 56.7643 109.473 56.4429 109.665C55.8643 109.922 54.3857 110.434 52.5857 111.011C53.2286 111.523 54.6429 112.548 56.3786 113.765C62.9357 118.441 71.7429 118.505 78.3643 113.957L83.8929 111.075C83.8286 111.011 81.3857 110.178 78.3643 109.345Z" fill="#389060"/>
<path d="M73.35 99.4164C73.35 98.1993 74.5714 96.9182 75.7286 96.4057L76.5 94.2918L59.4643 94.1637L59.5286 96.1495C60.6857 96.5979 61.5214 98.2633 61.5214 99.4804V102.875H73.35V99.4164Z" fill="url(#paint0_radial)"/>
<path d="M102.536 173.21C111.6 162.064 108.257 135.48 105.107 126.384C101.057 114.662 83.8286 111.011 83.8286 111.011C83.8286 111.011 95.9786 139.964 87.5571 161.039C83.7643 170.584 94.8214 177.694 102.536 173.21Z" fill="#8B8CC4"/>
<path d="M83.8286 111.011L97.9071 136.505L92.9571 150.982C89.4857 160.206 88.8429 169.943 90.9 179.359C90.45 179.359 90 179.359 89.55 179.359C72.8357 179.359 57.2143 174.747 43.8429 166.804C43.65 161.808 43.3929 155.082 41.85 150.918L40.2429 125.552L52.5857 111.011H83.8286Z" fill="url(#paint1_linear)"/>
<path d="M102.536 173.21C111.6 162.064 108.257 135.48 105.107 126.384C101.057 114.662 83.8286 111.011 83.8286 111.011C83.8286 111.011 95.9786 139.964 87.5571 161.039C83.7643 170.584 94.8214 177.694 102.536 173.21Z" fill="#358B5C"/>
<path d="M87.5571 161.039C81.5143 168.085 76.3071 179.744 90.5143 179.744C95.4 179.744 99.9643 176.925 102.536 173.146C109.157 163.345 94.3071 154.505 87.5571 161.039Z" fill="#8B8CC4"/>
<path d="M55.0286 172.441C64.35 172.121 81.5143 168.085 87.5571 161.039C94.3071 154.505 109.157 163.345 102.536 173.21C100.671 176.028 97.9071 178.27 94.6929 179.231C93.0214 179.295 91.35 179.359 89.6143 179.359C77.3357 179.359 65.7 176.925 55.0286 172.441Z" fill="#E0BB95"/>
<path d="M49.1786 142.27L52.5857 111.011C52.5857 111.011 36.3214 115.046 31.3071 126.384C26.9357 136.313 31.1786 168.149 31.1786 168.149L49.1786 142.27Z" fill="url(#paint2_linear)"/>
<path d="M69.6857 97.879L70.1357 97.815C80.4857 96.726 87.9429 87.5018 86.85 77.1886V77.0605C85.8857 68.0925 77.85 61.6228 68.9143 62.5836L63.5143 63.1602C54.5143 64.121 48.0214 72.1281 48.9857 81.032V81.1602C50.0786 91.5374 59.3357 98.968 69.6857 97.879Z" fill="#E0BB95"/>
<path d="M61.4293 82.6836C62.312 82.591 62.895 81.261 62.7315 79.7129C62.5679 78.1649 61.7197 76.985 60.837 77.0776C59.9543 77.1702 59.3713 78.5002 59.5349 80.0482C59.6984 81.5963 60.5466 82.7762 61.4293 82.6836Z" fill="#605D5A"/>
<path d="M81.9 73.4093L67.95 74.8826L69.5571 90L83.5071 88.5267L81.9 73.4093Z" fill="url(#paint3_radial)"/>
<path d="M76.3486 81.1452C77.2313 81.0526 77.8143 79.7226 77.6507 78.1746C77.4872 76.6265 76.639 75.4466 75.7563 75.5392C74.8736 75.6318 74.2906 76.9618 74.4541 78.5099C74.6177 80.058 75.4659 81.2378 76.3486 81.1452Z" fill="#605D5A"/>
<path d="M40.6929 78.2776C42.8143 79.1103 45.1286 79.4306 47.3786 79.1744C54.8357 78.4057 60.3 72 59.9786 64.6335L72.1929 63.3523C73.4143 70.5907 80.1643 75.7794 87.6214 74.9466C90.0643 74.6904 92.3786 73.8577 94.3071 72.4484C94.3071 71.4235 83.5714 53.8078 83.5714 53.8078L46.4143 57.6512C46.4143 57.6512 40.4357 77.1886 40.6929 78.2776Z" fill="white"/>
<path fill-rule="evenodd" clip-rule="evenodd" d="M68.4 59.7011C68.5929 59.637 68.85 59.637 69.0429 59.637C70.5214 59.637 71.8071 60.5979 72.0643 62.0712L72.1929 63.3523L66.1493 63.9862L66.0214 62.7117C66.0036 62.6302 65.9829 62.5502 65.9593 62.4719C66.0379 61.1292 67.0241 59.9991 68.4 59.7011ZM65.9593 62.4719C65.5573 61.135 64.336 60.2776 63 60.2776C62.8071 60.2776 62.55 60.2776 62.3571 60.3416C60.8786 60.6619 59.85 61.9431 59.9143 63.4164L60.0429 64.6334L66.15 63.9929L66.1493 63.9862L66.0857 63.9929L65.9571 62.7117V62.7758C65.9527 62.6735 65.9535 62.5721 65.9593 62.4719Z" fill="#E1D0C4"/>
<path d="M68.2714 77.9573C69.3 81.3523 71.8714 81.2242 71.4857 83.8505C71.2929 85.2598 69.3 86.2206 69.2357 87.3737C69.2357 87.3737 65.7 87.758 64.9929 82.7616C64.5429 79.6228 67.8214 76.4199 68.2714 77.9573Z" fill="#E0BB95"/>
<path opacity="0.8" d="M66.3429 91.5374C66.7929 91.089 67.3714 90.8968 67.8857 90.7046C68.4 90.5765 68.85 90.4484 69.3643 90.4484C69.8143 90.3843 70.2643 90.3843 70.7143 90.4484C71.1643 90.4484 71.6143 90.5125 72.1929 90.6406C72.45 90.7046 72.6429 90.9609 72.5786 91.2171C72.5786 91.2811 72.5143 91.3452 72.5143 91.4092C72.1286 91.9217 71.6143 92.242 71.1 92.4342C70.5857 92.6263 70.0071 92.7544 69.4929 92.8185C68.9786 92.8826 68.4643 92.8185 67.95 92.7544C67.4357 92.6904 66.9214 92.5623 66.4714 92.3701C66.2143 92.306 66.0857 91.9858 66.15 91.7295C66.2143 91.6655 66.2786 91.6014 66.3429 91.5374Z" fill="#BF8F68"/>
<path d="M61.7143 124.975L60.3 111.459C60.1714 110.05 60.75 108.641 61.8429 107.68L65.4429 104.797C66.0214 104.093 66.9214 103.836 67.8214 104.028C67.8214 104.028 73.0929 105.181 73.35 105.502C74.9571 107.616 70.9071 107.039 70.9071 107.039L72.8357 107.936C73.7357 108.384 74.3143 109.281 74.3143 110.242L72.6429 115.495C72.45 115.751 72.1286 115.879 71.8071 115.687C71.7429 115.623 71.6786 115.559 71.6143 115.495L70.9071 112.292C70.7786 112.036 70.5214 111.907 70.2 111.972L67.5643 113.445C67.5643 113.445 66.2143 113.701 68.7214 122.605C69.8143 126.512 66.0214 129.587 66.0214 129.587L61.7143 124.975Z" fill="#E0BB95"/>
<path d="M49.1786 141.886C49.1786 141.886 36.3857 114.662 31.3714 126C27 135.929 31.2429 167.765 31.2429 167.765L49.1786 141.886Z" fill="url(#paint4_linear)"/>
<path d="M61.3929 121.708C61.3929 121.708 61.5214 123.502 61.0071 125.039C58.3071 133.559 50.5929 142.655 44.4857 148.804C39.15 154.185 34.3286 159.374 32.0786 164.242C33.8786 177.63 45.9643 173.786 45.9643 173.786C45.9643 173.786 53.3571 165.139 60.1714 148.036C65.8929 133.623 68.5286 126.128 68.5286 126.128L61.3929 121.708Z" fill="#E0BB95"/>
<path d="M39.7286 176.477C44.4506 176.477 48.2786 172.663 48.2786 167.957C48.2786 163.252 44.4506 159.438 39.7286 159.438C35.0065 159.438 31.1786 163.252 31.1786 167.957C31.1786 172.663 35.0065 176.477 39.7286 176.477Z" fill="#E0BB95"/>
<defs>
<radialGradient id="paint0_radial" cx="0" cy="0" r="1" gradientUnits="userSpaceOnUse" gradientTransform="translate(65.6143 94.5) rotate(7.43141) scale(11.5974 5.9307)">
<stop stop-color="#915A37" stop-opacity="0.6"/>
<stop offset="1" stop-color="#DCB38B"/>
</radialGradient>
<linearGradient id="paint1_linear" x1="96.4072" y1="197.195" x2="96.4072" y2="132.455" gradientUnits="userSpaceOnUse">
<stop stop-color="#327F54"/>
<stop offset="0.180242" stop-color="#296343"/>
<stop offset="0.500528" stop-color="#226340"/>
<stop offset="0.800649" stop-color="#227949"/>
<stop offset="1" stop-color="#358C5C"/>
</linearGradient>
<linearGradient id="paint2_linear" x1="57.5326" y1="209.66" x2="57.5326" y2="128.218" gradientUnits="userSpaceOnUse">
<stop stop-color="#358B5C"/>
<stop offset="0.176" stop-color="#358C5C"/>
<stop offset="0.438318" stop-color="#277D4E"/>
<stop offset="0.662066" stop-color="#2C8554"/>
<stop offset="0.797672" stop-color="#2D8554"/>
<stop offset="1" stop-color="#358C5C"/>
</linearGradient>
<radialGradient id="paint3_radial" cx="0" cy="0" r="1" gradientUnits="userSpaceOnUse" gradientTransform="translate(65.9986 82.896) scale(8.51143 9.07692)">
<stop stop-color="#9C6957"/>
<stop offset="1" stop-color="#E0BB95"/>
</radialGradient>
<linearGradient id="paint4_linear" x1="53.4072" y1="200.139" x2="53.4072" y2="136.395" gradientUnits="userSpaceOnUse">
<stop stop-color="#257B4C"/>
<stop offset="0.214448" stop-color="#2A7D4F"/>
<stop offset="0.49963" stop-color="#266643"/>
<stop offset="0.808673" stop-color="#318858"/>
<stop offset="1" stop-color="#348B5B"/>
</linearGradient>
</defs>
</svg>
