<!-- svg for three dots for context menu in MRU Card -->
<svg width="2" height="10" viewBox="0 0 2 10" fill="none"
	xmlns="http://www.w3.org/2000/svg">
	<path d="M1 2C0.447715 2 3.2555e-07 1.55228 3.49692e-07 1C3.73833e-07 0.447715 0.447715 -2.41412e-08 1 0C1.55228 2.41411e-08 2 0.447715 2 1C2 1.55228 1.55228 2 1 2ZM1 6C0.447715 6 1.50705e-07 5.55229 1.74846e-07 5C1.98987e-07 4.44772 0.447715 4 1 4C1.55228 4 2 4.44772 2 5C2 5.55229 1.55228 6 1 6ZM0 9C-2.41407e-08 9.55229 0.447715 10 1 10C1.55228 10 2 9.55229 2 9C2 8.44771 1.55228 8 1 8C0.447715 8 2.41416e-08 8.44771 0 9Z" fill="#797775"/>
</svg>