<?xml version="1.0" encoding="UTF-8"?>
<svg width="160px" height="144px" viewBox="0 0 160 144" version="1.1" xmlns="http://www.w3.org/2000/svg" xmlns:xlink="http://www.w3.org/1999/xlink">
    <!-- Generator: Sketch 59.1 (86144) - https://sketch.com -->
    <title>Error</title>
    <desc>Created with Sketch.</desc>
    <g id="Error" stroke="none" stroke-width="1" fill="none" fill-rule="evenodd">
        <g id="Error-/-Generic-/-General-/-Color" transform="translate(0.000000, -3.000000)">
            <g id="Error-Generic-Color" transform="translate(9.000000, 15.000000)">
                <path d="M121.45,56 L87.12,90.53 C86.1834416,91.4765975 85.8225509,92.8506843 86.1730955,94.1353271 C86.5236401,95.4199698 87.5324463,96.420303 88.82,96.76 L135.91,109.21 C137.197143,109.548653 138.567215,109.175802 139.50524,108.231592 C140.443265,107.287382 140.807104,105.91489 140.46,104.63 L127.7,57.63 C127.346131,56.345796 126.334276,55.3477734 125.045323,55.0116144 C123.75637,54.6754554 122.385978,55.052188 121.45,56 L121.45,56 Z" id="Path" fill="#FFD590" fill-rule="nonzero"></path>
                <path d="M21.66,16.78 L1.35,61.05 C0.794878505,62.2598641 0.926587393,63.6738693 1.69560834,64.7603949 C2.4646293,65.8469204 3.75439694,66.4412749 5.08,66.32 L53.58,61.77 C54.9071518,61.6471307 56.067894,60.8254526 56.624856,59.614576 C57.181818,58.4036994 57.050354,56.9876505 56.28,55.9 L28.09,16.17 C27.3175427,15.0848568 26.0250467,14.4939844 24.6989997,14.6197835 C23.3729526,14.7455827 22.2146234,15.5689595 21.66,16.78 Z" id="Path" fill="#FFD590" fill-rule="nonzero"></path>
                <path d="M60.51,23 L1.59,110.32 C-0.0201825132,112.709037 -0.234630596,115.775275 1.02733195,118.365185 C2.28929449,120.955095 4.83624085,122.675814 7.71,122.88 L112.78,130.25 C115.652774,130.447137 118.412937,129.098615 120.023035,126.7113 C121.633133,124.323984 121.849191,121.25962 120.59,118.67 L74.44,24 C73.1833921,21.4068993 70.6380405,19.681901 67.7639035,19.4755739 C64.8897665,19.2692468 62.1241182,20.6129816 60.51,23 Z" id="Path" fill="#C8C6C4" fill-rule="nonzero"></path>
                <rect id="Rectangle" fill="#FFFFFF" fill-rule="nonzero" transform="translate(64.241843, 69.521426) rotate(4.010000) translate(-64.241843, -69.521426) " x="60.2418434" y="45.0214255" width="8" height="49" rx="4"></rect>
                <circle id="Oval" fill="#FFFFFF" fill-rule="nonzero" cx="61.86" cy="103.5" r="4.5"></circle>
                <circle id="Oval" fill="#28C2D1" fill-rule="nonzero" cx="19.17" cy="53.82" r="4.5"></circle>
                <rect id="Rectangle" fill="#F7B647" fill-rule="nonzero" transform="translate(131.752700, 61.793400) rotate(16.808692) translate(-131.752700, -61.793400) " x="127.741316" y="42.7393269" width="8.0227676" height="38.1081461" rx="4"></rect>
                <circle id="Oval" fill="#F7B647" fill-rule="nonzero" cx="123.31" cy="88.68" r="4.5"></circle>
                <rect id="Rectangle" fill="#F7B647" fill-rule="nonzero" transform="translate(11.392444, 26.348200) rotate(-15.810000) translate(-11.392444, -26.348200) " x="7.39244386" y="7.3481995" width="8" height="38" rx="4"></rect>
                <circle id="Oval" fill="#F7B647" fill-rule="nonzero" cx="19.17" cy="53.82" r="4.5"></circle>
                <path d="M77.37,12.28 C76.7793799,13.2457874 76.9372303,14.4919753 77.75,15.28 L77.75,15.28 C77.885435,15.4142751 78.0365186,15.5317846 78.2,15.63 C79.3546835,16.3175754 80.8479689,15.9420186 81.54,14.79 L84.66,9.57 C85.2842926,8.51853117 85.0414758,7.16812878 84.09,6.4 L83.82,6.22 C82.6627095,5.53416676 81.1686595,5.91438907 80.48,7.07 L77.37,12.28 Z" id="Path" fill="#E1DFDD" fill-rule="nonzero"></path>
                <path d="M86.93,23.39 C87.2113533,23.9754672 87.718005,24.4218877 88.3342342,24.6272974 C88.9504634,24.8327071 89.623637,24.7795618 90.2,24.48 L95.36,21.88 C96.5590026,21.2733382 97.0418335,19.8114333 96.44,18.61 C96.2829369,18.2858263 96.0537501,18.0019083 95.77,17.78 C95.5469867,17.6093633 95.296819,17.4775182 95.03,17.39 C94.4136229,17.1799681 93.7382327,17.230532 93.16,17.53 L88,20.13 C86.8022768,20.732625 86.3189779,22.1914716 86.92,23.39 L86.93,23.39 Z" id="Path" fill="#E1DFDD" fill-rule="nonzero"></path>
                <path d="M65.16,10.1 C65.3509711,11.434645 66.5844019,12.364187 67.92,12.18 C68.562267,12.090776 69.1426036,11.7495697 69.5328643,11.2317238 C69.923125,10.7138779 70.0912085,10.0619882 70,9.42 L69.1,3 C68.9040215,1.67384888 67.6786096,0.75144793 66.35,0.93 C65.7085485,1.01679131 65.1282343,1.35592023 64.7377571,1.87217624 C64.3472798,2.38843226 64.1789143,3.03914419 64.27,3.68 L65.16,10.1 Z" id="Path" fill="#E1DFDD" fill-rule="nonzero"></path>
            </g>
        </g>
    </g>
</svg>