<!-- svg for mic permissions dialog image-->
<svg width="402" height="80" viewBox="0 0 402 80" fill="none"
	xmlns="http://www.w3.org/2000/svg">
	<rect y="39" width="402" height="41" fill="#F2F2F2"/>
	<path d="M136 49C136 46.7909 137.791 45 140 45H402V75H140C137.791 75 136 73.2091 136 71V49Z" fill="white"/>
	<rect x="144" y="48" width="32" height="24" rx="2" fill="#F3F2F1"/>
	<path d="M165.336 58.3359V66.3359H154.664V58.3359H156.664V55C156.664 54.5417 156.753 54.1094 156.93 53.7031C157.102 53.2969 157.339 52.9427 157.641 52.6406C157.943 52.3385 158.297 52.1016 158.703 51.9297C159.109 51.7526 159.542 51.6641 160 51.6641C160.458 51.6641 160.891 51.7526 161.297 51.9297C161.703 52.1016 162.057 52.3385 162.359 52.6406C162.661 52.9427 162.901 53.2969 163.078 53.7031C163.25 54.1094 163.336 54.5417 163.336 55V58.3359H165.336ZM157.336 58.3359H162.664V55C162.664 54.6354 162.594 54.2917 162.453 53.9688C162.312 53.6406 162.122 53.3568 161.883 53.1172C161.643 52.8776 161.362 52.6875 161.039 52.5469C160.711 52.4062 160.365 52.3359 160 52.3359C159.63 52.3359 159.284 52.4062 158.961 52.5469C158.638 52.6875 158.357 52.8776 158.117 53.1172C157.878 53.3568 157.688 53.6406 157.547 53.9688C157.406 54.2917 157.336 54.6354 157.336 55V58.3359ZM164.664 59H155.336V65.6641H164.664V59Z" fill="black"/>
	<path d="M110.133 52.297C110.997 52.531 111.789 52.898 112.508 53.398C113.227 53.893 113.844 54.482 114.359 55.164C114.88 55.841 115.284 56.594 115.57 57.422C115.857 58.245 116 59.104 116 60C116 60.734 115.904 61.443 115.711 62.125C115.523 62.807 115.255 63.445 114.906 64.039C114.562 64.633 114.146 65.174 113.656 65.664C113.172 66.148 112.633 66.565 112.039 66.914C111.445 67.258 110.807 67.526 110.125 67.719C109.443 67.906 108.734 68 108 68C107.266 68 106.557 67.906 105.875 67.719C105.193 67.526 104.555 67.258 103.961 66.914C103.367 66.565 102.826 66.148 102.336 65.664C101.852 65.174 101.435 64.633 101.086 64.039C100.742 63.445 100.474 62.81 100.281 62.133C100.094 61.451 100 60.74 100 60C100 59.271 100.096 58.562 100.289 57.875C100.482 57.188 100.755 56.542 101.109 55.938C101.469 55.328 101.904 54.776 102.414 54.281C102.924 53.781 103.5 53.354 104.141 53H102V52H106V56H105V53.68C104.391 53.971 103.839 54.339 103.344 54.781C102.854 55.219 102.435 55.714 102.086 56.266C101.737 56.812 101.469 57.404 101.281 58.039C101.094 58.674 101 59.328 101 60C101 60.641 101.083 61.26 101.25 61.859C101.417 62.453 101.651 63.01 101.953 63.531C102.26 64.047 102.628 64.518 103.055 64.945C103.482 65.372 103.953 65.74 104.469 66.047C104.99 66.349 105.547 66.583 106.141 66.75C106.734 66.917 107.354 67 108 67C108.641 67 109.258 66.917 109.852 66.75C110.451 66.583 111.008 66.349 111.523 66.047C112.044 65.74 112.518 65.372 112.945 64.945C113.372 64.518 113.737 64.047 114.039 63.531C114.346 63.01 114.583 62.453 114.75 61.859C114.917 61.266 115 60.646 115 60C115 59.219 114.872 58.466 114.617 57.742C114.367 57.018 114.016 56.359 113.562 55.766C113.109 55.172 112.568 54.659 111.938 54.227C111.312 53.789 110.622 53.466 109.867 53.258L110.133 52.297Z" fill="black"/>
	<g opacity="0.3">
		<path d="M75.953 59.9999L68.602 67.3519L67.898 66.6479L74.047 60.4999H60V59.4999H74.047L67.898 53.3519L68.602 52.6479L75.953 59.9999Z" fill="black"/>
	</g>
	<path d="M35.9999 60.4999H21.9529L28.1019 66.6479L27.3979 67.3519L20.0469 59.9999L27.3979 52.6479L28.1019 53.3519L21.9529 59.4999H35.9999V60.4999Z" fill="black"/>
	<path d="M0 4C0 1.7909 1.75624 0 3.92237 0L398.078 0C400.245 0 402 1.7909 402 4V40H0V4Z" fill="#DDDDDD"/>
	<path d="M234 23.625V24.375H228.375V30H227.625V24.375H222V23.625H227.625V18H228.375V23.625H234Z" fill="black"/>
	<mask id="mask0" mask-type="alpha" maskUnits="userSpaceOnUse" x="2" y="4" width="216" height="36">
		<rect x="2" y="4" width="216" height="36" fill="white"/>
	</mask>
	<g mask="url(#mask0)">
		<path fill-rule="evenodd" clip-rule="evenodd" d="M10 12C10 9.7909 11.791 8 14 8H206C208.209 8 210 9.7909 210 12V36C210 38.209 211.791 40 214 40H210H10H6C8.209 40 10 38.209 10 36V12Z" fill="#F2F2F2"/>
	</g>
	<path d="M190.708 24L195 28.292L194.292 29L190 24.708L185.708 29L185 28.292L189.292 24L185 19.708L185.708 19L190 23.292L194.292 19L195 19.708L190.708 24Z" fill="black"/>
	<rect x="51" y="19" width="82" height="9" rx="4.5" fill="#B3B0AD"/>
	<path d="M36.3333 15.8H25.656C25.2937 15.8 25 16.0938 25 16.456V18.9916L31 20.7474L37 18.9916V16.4667C36.9989 16.099 36.7011 15.8011 36.3333 15.8V15.8Z" fill="#41A5EE"/>
	<path d="M37 19H25V23L31 24.6128L37 23V19V19Z" fill="#2B7CD3"/>
	<path d="M37 23H25V27L31.4 28.6L37 27V23V23Z" fill="#185ABD"/>
	<path d="M37 27H25V29.542C25 29.9054 25.2946 30.2 25.658 30.2H36.342C36.7054 30.2 37 29.9054 37 29.542V27Z" fill="#103F91"/>
	<path opacity="0.5" d="M30.5704 19.0001H25V28.6001H30.4074C30.9212 28.5757 31.3414 28.1825 31.4 27.6716V19.8001C31.3904 19.3507 31.0198 18.9934 30.5704 19.0001Z" fill="black"/>
	<rect x="21" y="18.2" width="9.6" height="9.6" rx="0.8" fill="#185ABD"/>
	<path d="M24.207 24.4885C24.2235 24.626 24.2343 24.746 24.2394 24.8485H24.2584C24.266 24.7515 24.2806 24.6342 24.3022 24.4966C24.3238 24.3591 24.3447 24.2432 24.365 24.1488L25.248 20.1001H26.3898L27.3032 24.0881C27.3568 24.3363 27.3949 24.5875 27.4174 24.8404H27.4325C27.4496 24.596 27.4814 24.3529 27.5277 24.1124L28.2584 20.1001H29.2974L28.0187 25.9001H26.8046L25.933 22.0577C25.9076 21.9472 25.8791 21.8029 25.8474 21.6249C25.8158 21.4469 25.7961 21.3175 25.7884 21.2366H25.7732C25.7631 21.3311 25.7434 21.4713 25.7143 21.6573C25.685 21.8433 25.6616 21.9808 25.6439 22.0698L24.8255 25.9001H23.5924L22.3022 20.1001H23.3603L24.1557 24.1569C24.1734 24.2405 24.1906 24.351 24.207 24.4885Z" fill="white"/>
</svg>
